<svg width="16" height="16" viewBox="0 0 16 16" fill="none" xmlns="http://www.w3.org/2000/svg">
<path d="M0 6.50746C0 7.40583 0.169358 8.25018 0.508073 9.04051C0.846789 9.82516 1.31755 10.516 1.92034 11.113C2.52314 11.71 3.22067 12.1763 4.01292 12.5117C4.80517 12.8472 5.65483 13.0149 6.56189 13.0149C7.25655 13.0149 7.91676 12.9126 8.54252 12.7079C9.16828 12.5032 9.74525 12.2189 10.2734 11.855L14.1485 15.7015C14.2519 15.8038 14.3724 15.8778 14.5102 15.9232C14.648 15.9744 14.7887 16 14.9322 16C15.1389 16 15.3226 15.9517 15.4833 15.855C15.6441 15.764 15.7704 15.6361 15.8622 15.4712C15.9541 15.312 16 15.1272 16 14.9168C16 14.7804 15.9742 14.6468 15.9225 14.516C15.8708 14.3852 15.7962 14.2658 15.6986 14.1578L11.8493 10.3369C12.2569 9.80242 12.5727 9.21109 12.7966 8.5629C13.0205 7.90903 13.1324 7.22388 13.1324 6.50746C13.1324 5.6091 12.963 4.76759 12.6243 3.98294C12.2856 3.19261 11.8149 2.50178 11.2121 1.91045C10.6093 1.31343 9.91173 0.847193 9.11948 0.511727C8.32723 0.170576 7.4747 0 6.56189 0C5.65483 0 4.80517 0.170576 4.01292 0.511727C3.22067 0.847193 2.52314 1.31343 1.92034 1.91045C1.31755 2.50178 0.846789 3.19261 0.508073 3.98294C0.169358 4.76759 0 5.6091 0 6.50746ZM1.56728 6.50746C1.56728 5.82516 1.69645 5.1855 1.95479 4.58849C2.21313 3.98579 2.57194 3.45984 3.03122 3.01066C3.49049 2.55579 4.02153 2.20043 4.62433 1.94456C5.22713 1.6887 5.87298 1.56077 6.56189 1.56077C7.25081 1.56077 7.89666 1.6887 8.49946 1.94456C9.108 2.20043 9.63904 2.55579 10.0926 3.01066C10.5518 3.45984 10.9107 3.98579 11.169 4.58849C11.4273 5.1855 11.5565 5.82516 11.5565 6.50746C11.5565 7.18976 11.4273 7.83227 11.169 8.43497C10.9107 9.03198 10.5518 9.55792 10.0926 10.0128C9.63904 10.462 9.108 10.8145 8.49946 11.0704C7.89666 11.3262 7.25081 11.4542 6.56189 11.4542C5.87298 11.4542 5.22713 11.3262 4.62433 11.0704C4.02153 10.8145 3.49049 10.462 3.03122 10.0128C2.57194 9.55792 2.21313 9.03198 1.95479 8.43497C1.69645 7.83227 1.56728 7.18976 1.56728 6.50746ZM4.46932 7.12153H8.66308C8.83531 7.12153 8.9817 7.06183 9.10226 6.94243C9.22282 6.81734 9.2831 6.67235 9.2831 6.50746C9.2831 6.34257 9.22282 6.20043 9.10226 6.08102C8.9817 5.95593 8.83531 5.89339 8.66308 5.89339H4.46932C4.30283 5.89339 4.15644 5.95593 4.03014 6.08102C3.90958 6.20043 3.8493 6.34257 3.8493 6.50746C3.8493 6.67235 3.90958 6.81734 4.03014 6.94243C4.15644 7.06183 4.30283 7.12153 4.46932 7.12153Z" fill="#191978"/>
</svg>
